[Header]
FileType HTR
DataType HTRS
FileVersion 1
NumSegments 64
NumFrames 3
DataFrameRate 24
EulerRotationOrder ZYX
CalibrationUnits mm
RotationUnits Degrees
GlobalAxisofGravity Y
BoneLengthAxis Y
ScaleFactor 1.0
[SegmentNames&Hierarchy]
Hips	GLOBAL
Spine	Hips
Spine1	Spine
Spine2	Spine1
Neck	Spine2
Head	Neck
LeftEye	Head
RightEye	Head
LeftShoulder	Spine2
LeftArm	LeftShoulder
LeftForeArm	LeftArm
LeftHand	LeftForeArm
LeftHandThumb1	LeftHand
LeftHandThumb2	LeftHandThumb1
LeftHandThumb3	LeftHandThumb2
LeftHandThumb4	LeftHandThumb3
LeftHandIndex1	LeftHand
LeftHandIndex2	LeftHandIndex1
LeftHandIndex3	LeftHandIndex2
LeftHandIndex4	LeftHandIndex3
LeftHandMiddle1	LeftHand
LeftHandMiddle2	LeftHandMiddle1
LeftHandMiddle3	LeftHandMiddle2
LeftHandMiddle4	LeftHandMiddle3
LeftHandRing1	LeftHand
LeftHandRing2	LeftHandRing1
LeftHandRing3	LeftHandRing2
LeftHandRing4	LeftHandRing3
LeftHandPinky1	LeftHand
LeftHandPinky2	LeftHandPinky1
LeftHandPinky3	LeftHandPinky2
LeftHandPinky4	LeftHandPinky3
RightShoulder	Spine2
RightArm	RightShoulder
RightForeArm	RightArm
RightHand	RightForeArm
RightHandPinky1	RightHand
RightHandPinky2	RightHandPinky1
RightHandPinky3	RightHandPinky2
RightHandPinky4	RightHandPinky3
RightHandRing1	RightHand
RightHandRing2	RightHandRing1
RightHandRing3	RightHandRing2
RightHandRing4	RightHandRing3
RightHandMiddle1	RightHand
RightHandMiddle2	RightHandMiddle1
RightHandMiddle3	RightHandMiddle2
RightHandMiddle4	RightHandMiddle3
RightHandIndex1	RightHand
RightHandIndex2	RightHandIndex1
RightHandIndex3	RightHandIndex2
RightHandIndex4	RightHandIndex3
RightHandThumb1	RightHand
RightHandThumb2	RightHandThumb1
RightHandThumb3	RightHandThumb2
RightHandThumb4	RightHandThumb3
LeftUpLeg	Hips
LeftLeg	LeftUpLeg
LeftFoot	LeftLeg
LeftToeBase	LeftFoot
RightUpLeg	Hips
RightLeg	RightUpLeg
RightFoot	RightLeg
RightToeBase	RightFoot
[BasePosition]
Hips	0	0	0	0	0	0	1
Spine	0	0	0	0	0	0	1
Spine1	0	0	0	0	0	0	1
Spine2	0	0	0	0	0	0	1
Neck	0	0	0	0	0	0	1
Head	0	0	0	0	0	0	1
LeftEye	0	0	0	0	0	0	1
RightEye	0	0	0	0	0	0	1
LeftShoulder	0	0	0	0	0	0	1
LeftArm	0	0	0	0	0	0	1
LeftForeArm	0	0	0	0	0	0	1
LeftHand	0	0	0	0	0	0	1
LeftHandThumb1	0	0	0	0	0	0	1
LeftHandThumb2	0	0	0	0	0	0	1
LeftHandThumb3	0	0	0	0	0	0	1
LeftHandThumb4	0	0	0	0	0	0	1
LeftHandIndex1	0	0	0	0	0	0	1
LeftHandIndex2	0	0	0	0	0	0	1
LeftHandIndex3	0	0	0	0	0	0	1
LeftHandIndex4	0	0	0	0	0	0	1
LeftHandMiddle1	0	0	0	0	0	0	1
LeftHandMiddle2	0	0	0	0	0	0	1
LeftHandMiddle3	0	0	0	0	0	0	1
LeftHandMiddle4	0	0	0	0	0	0	1
LeftHandRing1	0	0	0	0	0	0	1
LeftHandRing2	0	0	0	0	0	0	1
LeftHandRing3	0	0	0	0	0	0	1
LeftHandRing4	0	0	0	0	0	0	1
LeftHandPinky1	0	0	0	0	0	0	1
LeftHandPinky2	0	0	0	0	0	0	1
LeftHandPinky3	0	0	0	0	0	0	1
LeftHandPinky4	0	0	0	0	0	0	1
RightShoulder	0	0	0	0	0	0	1
RightArm	0	0	0	0	0	0	1
RightForeArm	0	0	0	0	0	0	1
RightHand	0	0	0	0	0	0	1
RightHandPinky1	0	0	0	0	0	0	1
RightHandPinky2	0	0	0	0	0	0	1
RightHandPinky3	0	0	0	0	0	0	1
RightHandPinky4	0	0	0	0	0	0	1
RightHandRing1	0	0	0	0	0	0	1
RightHandRing2	0	0	0	0	0	0	1
RightHandRing3	0	0	0	0	0	0	1
RightHandRing4	0	0	0	0	0	0	1
RightHandMiddle1	0	0	0	0	0	0	1
RightHandMiddle2	0	0	0	0	0	0	1
RightHandMiddle3	0	0	0	0	0	0	1
RightHandMiddle4	0	0	0	0	0	0	1
RightHandIndex1	0	0	0	0	0	0	1
RightHandIndex2	0	0	0	0	0	0	1
RightHandIndex3	0	0	0	0	0	0	1
RightHandIndex4	0	0	0	0	0	0	1
RightHandThumb1	0	0	0	0	0	0	1
RightHandThumb2	0	0	0	0	0	0	1
RightHandThumb3	0	0	0	0	0	0	1
RightHandThumb4	0	0	0	0	0	0	1
LeftUpLeg	0	0	0	0	0	0	1
LeftLeg	0	0	0	0	0	0	1
LeftFoot	0	0	0	0	0	0	1
LeftToeBase	0	0	0	0	0	0	1
RightUpLeg	0	0	0	0	0	0	1
RightLeg	0	0	0	0	0	0	1
RightFoot	0	0	0	0	0	0	1
RightToeBase	0	0	0	0	0	0	1
[Hips]
22	5.581945896	996.4887695	1518.029663	-0.7963302732	8.368680954	-4.201465607	1.0
23	4.598462105	1008.952759	1575.050781	-0.8846597672	9.588458061	-5.166112423	1.0
24	6.098824501	1017.252808	1633.744873	-1.10002768	10.0431776	-4.743685722	1.0
[Spine]
22	0	101.8159943	1.315000057	1.882140756	-1.527138948	3.301328182	1.0
23	0	101.8159943	1.315000057	2.066717863	-1.361877918	3.562430382	1.0
24	0	101.8159943	1.315000057	2.566610098	-0.927526772	3.384051085	1.0
[Spine1]
22	0	100.8349991	-10.00800037	1.560060382	-3.785742521	1.10529983	1.0
23	0	100.8349991	-10.00800037	1.674826145	-3.221032143	1.437533379	1.0
24	0	100.8349991	-10.00800037	1.623588443	-2.301941156	0.7803903222	1.0
[Spine2]
22	0	91	-13.73399925	-3.068929672	-3.728503704	0.7211694717	1.0
23	0	91	-13.73399925	-2.916764975	-3.164819717	1.040371299	1.0
24	0	91	-13.73399925	-2.936023712	-2.269197464	0.3683923185	1.0
[Neck]
22	0	166.7169952	-25.16200066	-4.28324461	-0.3068902791	-2.007795572	1.0
23	0	166.7169952	-25.16200066	-4.097794056	-0.6690389514	-1.777564764	1.0
24	0	166.7169952	-25.16200066	-3.348052263	-1.20688951	-0.9148350358	1.0
[Head]
22	0	96.17900085	16.84999847	-0.9358235002	-0.4635968506	-1.404687285	1.0
23	0	96.17900085	16.84999847	-1.244901896	-2.062946796	-0.6601608396	1.0
24	0	96.17900085	16.84999847	-1.373228669	-3.833070993	0.401432693	1.0
[LeftEye]
22	30.6760006	64.09500122	92.83599854	0	0	0	1.0
23	30.6760006	64.09500122	92.83599854	0	0	0	1.0
24	30.6760006	64.09500122	92.83599854	0	0	0	1.0
[RightEye]
22	-30.6760006	64.09500122	92.83499908	0	0	0	1.0
23	-30.6760006	64.09500122	92.83499908	0	0	0	1.0
24	-30.6760006	64.09500122	92.83499908	0	0	0	1.0
[LeftShoulder]
22	45.70400238	109.4599991	-26.28000069	7.651036263	-21.70885658	0.3992555737	1.0
23	45.70400238	109.4599991	-26.28000069	7.708363056	-20.99256134	-0.2180190384	1.0
24	45.70400238	109.4599991	-26.28000069	7.668215275	-21.15202141	0.1720602959	1.0
[LeftArm]
22	105.923996	-5.24600029	-22.32099915	-6.726754665	8.523293495	-71.32967377	1.0
23	105.923996	-5.24600029	-22.32099915	-4.432495594	5.710738659	-74.07637787	1.0
24	105.923996	-5.24600029	-22.32099915	-4.017139435	2.596046686	-77.0072937	1.0
[LeftForeArm]
22	278.414978	-0.0009999999311	0	-1.882403012e-05	-61.74721146	-0.0001723331952	1.0
23	278.414978	-0.0009999999311	0	1.785223685e-05	-50.73387146	-0.0002285266819	1.0
24	278.414978	-0.0009999999311	0	-5.850932212e-06	-36.30511856	-0.0001924470416	1.0
[LeftHand]
22	283.2879944	0	0	12.18423557	-20.84503365	5.879212856	1.0
23	283.2879944	0	0	13.94882298	-21.98794937	2.780506372	1.0
24	283.2879944	0	0	19.24930191	-20.59240532	-1.62626946	1.0
[LeftHandThumb1]
22	24.6609993	-15.75	26.8239994	29.38849258	-3.564932346	24.02027321	1.0
23	24.6609993	-15.75	26.8239994	29.71892929	-3.030993462	23.18156624	1.0
24	24.6609993	-15.75	26.8239994	30.01411629	-2.569846869	22.37999535	1.0
[LeftHandThumb2]
22	32.29800034	-18.64699936	18.64699936	-13.21975231	16.7592392	-18.70152283	1.0
23	32.29800034	-18.64699936	18.64699936	-13.08607388	16.04478455	-17.38785362	1.0
24	32.29800034	-18.64699936	18.64699936	-12.76962852	15.47224426	-15.46424007	1.0
[LeftHandThumb3]
22	26.52600098	-15.31499958	15.31499958	6.715328693	-16.98594666	14.11460495	1.0
23	26.52600098	-15.31499958	15.31499958	7.186961174	-15.29167366	6.993177414	1.0
24	26.52600098	-15.31499958	15.31499958	7.821388721	-11.30895042	-0.1487782001	1.0
[LeftHandThumb4]
22	19.54599953	-11.28499985	11.28499985	0	0	0	1.0
23	19.54599953	-11.28499985	11.28499985	0	0	0	1.0
24	19.54599953	-11.28499985	11.28499985	0	0	0	1.0
[LeftHandIndex1]
22	91.09299469	-5.170999527	22.60099792	2.555853605	1.852681041	9.372122765	1.0
23	91.09299469	-5.170999527	22.60099792	1.481868744	2.680127859	6.335753441	1.0
24	91.09299469	-5.170999527	22.60099792	0.5647526979	3.471271276	4.012415886	1.0
[LeftHandIndex2]
22	36.76399994	0	0	-0.4524078965	2.416950941	-16.68922424	1.0
23	36.76399994	0	0	-0.4501348138	2.411933184	-16.6351738	1.0
24	36.76399994	0	0	-0.4580051005	2.429194927	-16.82149124	1.0
[LeftHandIndex3]
22	28.83100128	0	0	-0.03135212883	0.1623704731	-3.725358009	1.0
23	28.83100128	0	0	-0.03098142147	0.1566125005	-3.668014526	1.0
24	28.83100128	0	0	-0.03218948096	0.1749740392	-3.850975513	1.0
[LeftHandIndex4]
22	23.92700005	0	0	0	0	0	1.0
23	23.92700005	0	0	0	0	0	1.0
24	23.92700005	0	0	0	0	0	1.0
[LeftHandMiddle1]
22	95.33399963	0	0	-0.9648545384	6.120256424	-11.3428297	1.0
23	95.33399963	0	0	-1.302858114	6.832288265	-14.20610619	1.0
24	95.33399963	0	0	-1.590064526	7.474465847	-16.55465698	1.0
[LeftHandMiddle2]
22	36.98199844	0	0	-1.033181787	3.348526239	-27.31653404	1.0
23	36.98199844	0	0	-1.026309252	3.339268446	-27.2025013	1.0
24	36.98199844	0	0	-1.021116734	3.332182169	-27.11569023	1.0
[LeftHandMiddle3]
22	29.50900078	0	0	-0.2521705627	1.861678123	-16.18462944	1.0
23	29.50900078	0	0	-0.248842895	1.850969553	-16.07195663	1.0
24	29.50900078	0	0	-0.2463737577	1.842946053	-15.98742104	1.0
[LeftHandMiddle4]
22	28.3390007	0	0	0	0	0	1.0
23	28.3390007	0	0	0	0	0	1.0
24	28.3390007	0	0	0	0	0	1.0
[LeftHandRing1]
22	91.04499817	-0.4390000105	-18.65100098	-3.082740307	6.899124622	-29.19688797	1.0
23	91.04499817	-0.4390000105	-18.65100098	-3.424683809	6.805758953	-31.80838585	1.0
24	91.04499817	-0.4390000105	-18.65100098	-3.812353373	7.082770824	-34.57774734	1.0
[LeftHandRing2]
22	31.54000092	0	0	-0.1951945424	2.061168671	-17.51074028	1.0
23	31.54000092	0	0	-0.1890497208	2.038539171	-17.27435875	1.0
24	31.54000092	0	0	-0.1863498241	2.028486252	-17.16938019	1.0
[LeftHandRing3]
22	29.37700081	0	0	0.02399943769	1.275875568	-12.92396164	1.0
23	29.37700081	0	0	0.02694149129	1.252510667	-12.68745041	1.0
24	29.37700081	0	0	0.02821297757	1.242096782	-12.58208466	1.0
[LeftHandRing4]
22	26.47500038	0	0	0	0	0	1.0
23	26.47500038	0	0	0	0	0	1.0
24	26.47500038	0	0	0	0	0	1.0
[LeftHandPinky1]
22	80.77799988	-4.887000084	-38.06099701	-3.635807753	11.43943214	-28.51050568	1.0
23	80.77799988	-4.887000084	-38.06099701	-3.870627642	12.44586658	-30.35313797	1.0
24	80.77799988	-4.887000084	-38.06099701	-4.00963974	13.38613319	-31.43760681	1.0
[LeftHandPinky2]
22	36	0	0	-0.8943058252	2.596637487	-29.46675682	1.0
23	36	0	0	-0.8779206872	2.570914268	-29.16149712	1.0
24	36	0	0	-0.875197351	2.566576481	-29.11019707	1.0
[LeftHandPinky3]
22	21.14200211	0	0	-0.1120620593	1.560436606	-7.081080437	1.0
23	21.14200211	0	0	-0.105799906	1.530523539	-6.776400566	1.0
24	21.14200211	0	0	-0.1047420055	1.525499225	-6.725153446	1.0
[LeftHandPinky4]
22	19.75699997	0	0	0	0	0	1.0
23	19.75699997	0	0	0	0	0	1.0
24	19.75699997	0	0	0	0	0	1.0
[RightShoulder]
22	-45.70000076	109.4620056	-26.28000069	-0.4667301178	4.369983196	4.427486897	1.0
23	-45.70000076	109.4620056	-26.28000069	-0.414806366	5.155255795	4.065891743	1.0
24	-45.70000076	109.4620056	-26.28000069	-0.3600390851	5.303323746	5.340899467	1.0
[RightArm]
22	-105.9280014	-5.248000145	-22.32099915	-2.172553062	-30.56179047	77.6383667	1.0
23	-105.9280014	-5.248000145	-22.32099915	0.9026996493	-25.40409279	75.46755219	1.0
24	-105.9280014	-5.248000145	-22.32099915	3.870657206	-21.93055344	72.51184082	1.0
[RightForeArm]
22	-278.414978	0	0	-1.213281507e-06	28.31299973	-1.43818188e-05	1.0
23	-278.414978	0	0	5.765637979e-06	28.28956413	1.2837555e-05	1.0
24	-278.414978	0	0	-1.194660035e-05	32.51657104	-9.118055459e-06	1.0
[RightHand]
22	-283.2879944	0	0.0009999999311	25.68639755	-7.286751747	10.7073698	1.0
23	-283.2879944	0	0.0009999999311	25.47148705	-2.676763296	10.43149281	1.0
24	-283.2879944	0	0.0009999999311	26.15008545	5.791946888	7.290740967	1.0
[RightHandPinky1]
22	-80.76699829	-4.885000229	-38.06000137	-5.185452461	-9.950193405	41.95067215	1.0
23	-80.76699829	-4.885000229	-38.06000137	-5.409467697	-9.597038269	43.84764862	1.0
24	-80.76699829	-4.885000229	-38.06000137	-5.566511154	-8.987404823	45.47047806	1.0
[RightHandPinky2]
22	-36	0	0.0009999999311	-2.274784565	-4.083769798	49.93217468	1.0
23	-36	0	0.0009999999311	-2.243121386	-4.05983305	49.5340538	1.0
24	-36	0	0.0009999999311	-2.209456682	-4.034005642	49.10842896	1.0
[RightHandPinky3]
22	-21.14200211	0	0	-2.115402222	-1.671763778	44.12625122	1.0
23	-21.14200211	0	0	-2.085496902	-1.645624757	43.72952271	1.0
24	-21.14200211	0	0	-2.053712606	-1.617426753	43.30537796	1.0
[RightHandPinky4]
22	-19.75699997	0	0	0	0	0	1.0
23	-19.75699997	0	0	0	0	0	1.0
24	-19.75699997	0	0	0	0	0	1.0
[RightHandRing1]
22	-91.03599548	-0.4390000105	-18.65100098	-4.076637268	-8.376356125	36.0280304	1.0
23	-91.03599548	-0.4390000105	-18.65100098	-4.434439182	-7.943567276	38.78926468	1.0
24	-91.03599548	-0.4390000105	-18.65100098	-4.740568638	-7.355690002	41.21757507	1.0
[RightHandRing2]
22	-31.54000092	0	0	-0.4048559368	-2.682798386	24.13757896	1.0
23	-31.54000092	0	0	-0.399189949	-2.668697596	23.98415375	1.0
24	-31.54000092	0	0	-0.3922753036	-2.651318073	23.79524612	1.0
[RightHandRing3]
22	-29.37700081	0	0	-0.2022843361	-0.1754824519	20.5581913	1.0
23	-29.37700081	0	0	-0.19837147	-0.1607213467	20.40499496	1.0
24	-29.37700081	0	0	-0.1936006099	-0.1425010264	20.21568108	1.0
[RightHandRing4]
22	-26.47500038	0	0	0	0	0	1.0
23	-26.47500038	0	0	0	0	0	1.0
24	-26.47500038	0	0	0	0	0	1.0
[RightHandMiddle1]
22	-95.32500458	0	0	-1.646144629	-7.304321289	17.03605843	1.0
23	-95.32500458	0	0	-2.060785532	-7.659229755	20.37293625	1.0
24	-95.32500458	0	0	-2.422520876	-7.7797575	23.22125626	1.0
[RightHandMiddle2]
22	-36.98199844	0	0	-1.755345106	-4.151256561	38.01424408	1.0
23	-36.98199844	0	0	-1.76326859	-4.158559799	38.12086105	1.0
24	-36.98199844	0	0	-1.757567525	-4.153303623	38.04418564	1.0
[RightHandMiddle3]
22	-29.50900078	0	0	-0.8784890771	-3.043395042	31.04919243	1.0
23	-29.50900078	0	0	-0.8842784762	-3.052557945	31.15838242	1.0
24	-29.50900078	0	0	-0.8803555965	-3.046349525	31.08453369	1.0
[RightHandMiddle4]
22	-28.3390007	0	0.0009999999311	0	0	0	1.0
23	-28.3390007	0	0.0009999999311	0	0	0	1.0
24	-28.3390007	0	0.0009999999311	0	0	0	1.0
[RightHandIndex1]
22	-91.08300018	-5.167999744	22.60099792	-0.1771024466	1.216464877	5.380851746	1.0
23	-91.08300018	-5.167999744	22.60099792	-0.4969868362	0.9509395361	8.333395004	1.0
24	-91.08300018	-5.167999744	22.60099792	-0.7671046257	0.9684423208	10.7597456	1.0
[RightHandIndex2]
22	-36.76399994	0	0	-0.9723063111	-3.328824759	27.03462219	1.0
23	-36.76399994	0	0	-0.971742034	-3.328023672	27.02493095	1.0
24	-36.76399994	0	0	-0.9562131763	-3.305617809	26.75665283	1.0
[RightHandIndex3]
22	-28.83100128	0	0	-0.3442723751	-0.5317439437	17.71302223	1.0
23	-28.83100128	0	0	-0.3439752162	-0.5308220983	17.7033596	1.0
24	-28.83100128	0	0	-0.3358498514	-0.5051702261	17.4358654	1.0
[RightHandIndex4]
22	-23.92700005	0	0	0	0	0	1.0
23	-23.92700005	0	0	0	0	0	1.0
24	-23.92700005	0	0	0	0	0	1.0
[RightHandThumb1]
22	-24.64799881	-15.72700024	26.82600021	17.80104637	-6.602129936	-18.15419006	1.0
23	-24.64799881	-15.72700024	26.82600021	15.82720375	-5.639380455	-18.95801353	1.0
24	-24.64799881	-15.72700024	26.82600021	14.45788193	-3.876219749	-18.62077332	1.0
[RightHandThumb2]
22	-32.29800034	-18.64699936	18.64699936	6.586990356	0.2773734033	-15.28792763	1.0
23	-32.29800034	-18.64699936	18.64699936	7.247242928	-1.820396304	-14.34228897	1.0
24	-32.29800034	-18.64699936	18.64699936	7.143251419	-3.743361712	-13.83635521	1.0
[RightHandThumb3]
22	-26.52600098	-15.31399918	15.31399918	-12.42345715	8.518579483	7.421505451	1.0
23	-26.52600098	-15.31399918	15.31399918	-12.49886703	8.89342308	7.286080837	1.0
24	-26.52600098	-15.31399918	15.31399918	-12.5829525	9.309979439	7.135960579	1.0
[RightHandThumb4]
22	-19.54599953	-11.28499985	11.28499985	0	0	0	1.0
23	-19.54599953	-11.28499985	11.28499985	0	0	0	1.0
24	-19.54599953	-11.28499985	11.28499985	0	0	0	1.0
[LeftUpLeg]
22	82.07800293	-67.51699829	-15.99599934	-7.825930119	1.698961973	5.718543053	1.0
23	82.07800293	-67.51699829	-15.99599934	-15.93072414	1.423716664	5.315598011	1.0
24	82.07800293	-67.51699829	-15.99599934	-22.47951317	0.3807477951	3.434039593	1.0
[LeftLeg]
22	0	-443.7049866	2.845999956	63.94851303	-4.877771378	5.63632822	1.0
23	0	-443.7049866	2.845999956	66.88079834	-5.013183594	5.832231045	1.0
24	0	-443.7049866	2.845999956	63.99877167	-5.313838959	4.907311916	1.0
[LeftFoot]
22	0	-444.2789917	-29.8219986	15.24621868	0.3416951299	-13.4492712	1.0
23	0	-444.2789917	-29.8219986	7.930877686	1.568842053	-3.689032793	1.0
24	0	-444.2789917	-29.8219986	1.477264404	0.2556286454	-1.486238003	1.0
[LeftToeBase]
22	0	-87.28699493	107.1060028	-1.272832036	3.193112207e-06	8.982676718e-07	1.0
23	0	-87.28699493	107.1060028	-2.13568306	1.464251795e-06	1.387499765e-06	1.0
24	0	-87.28699493	107.1060028	-1.567210317	-6.925857292e-07	-2.116736795e-07	1.0
[RightUpLeg]
22	-82.07800293	-67.51699829	-15.99599934	-23.02530289	-8.105296135	10.62721729	1.0
23	-82.07800293	-67.51699829	-15.99599934	-16.83196068	-9.494399071	11.97363949	1.0
24	-82.07800293	-67.51699829	-15.99599934	-10.65751553	-11.11286545	11.55260754	1.0
[RightLeg]
22	0	-443.7049866	2.861999989	26.51475143	1.979377627	-0.4632204473	1.0
23	0	-443.7049866	2.861999989	21.30659485	1.494086742	-1.044421077	1.0
24	0	-443.7049866	2.861999989	17.19353867	1.856520176	-1.397891402	1.0
[RightFoot]
22	0	-444.2770081	-29.83799934	-3.936362505	-5.295311451	-3.560288429	1.0
23	0	-444.2770081	-29.83799934	-5.453440666	-6.339961529	-4.083239555	1.0
24	0	-444.2770081	-29.83799934	-7.327320576	-5.473442554	-4.289536476	1.0
[RightToeBase]
22	0	-87.28699493	107.1060028	-3.44735074	-5.294787684e-07	-8.572994261e-07	1.0
23	0	-87.28699493	107.1060028	-3.670596838	-2.42047463e-06	-4.54997803e-07	1.0
24	0	-87.28699493	107.1060028	-2.77319622	-1.104715011e-06	1.665864033e-06	1.0
[EndOfFile]
